The.Romantics.2010.DVDRiP.XViD.AC3.NiTR0

Source: R1 NTSC DVD9
Runtime: 97 min
IMDB: http://www.imdb.com/title/tt1403988/
Genre: Comedy | Drama | Romance

Complete name                    : The.Romantics.2010.DVDRiP.XViD.AC3.NiTR0.avi
Format                           : AVI
Format/Info                      : Audio Video Interleave
Format profile                   : OpenDML
Format settings                  : rec
File size                        : 1.37 GiB
Duration                         : 1h 36mn
Overall bit rate                 : 2 027 Kbps


Format                           : MPEG-4 Visual
Format profile                   : Advanced Simple@L5
Format settings, BVOP            : 2
Format settings, QPel            : No
Format settings, GMC             : No warppoints
Format settings, Matrix          : Default (H.263)
Muxing mode                      : Packed bitstream
Codec ID                         : XVID
Duration                         : 1h 36mn
Bit rate                         : 1 573 Kbps
Width                            : 720 pixels
Height                           : 384 pixels
Display aspect ratio             : 1.875
Frame rate                       : 23.976 fps
Scan type                        : Progressive
Stream size                      : 1.06 GiB (78%)


Format                           : AC-3
Format/Info                      : Audio Coding 3
Mode extension                   : CM (complete main)
Duration                         : 1h 36mn
Bit rate mode                    : Constant
Bit rate                         : 448 Kbps
Channel(s)                       : 6 channels
Channel positions                : Front: L C R, Side: L R, LFE
Sampling rate                    : 48.0 KHz
Bit depth                        : 16 bits
Stream size                      : 310 MiB (22%)


Seven close friends reunite for the wedding of two of their friends. Problems arise because the bride and the maid of honor had a long rivalry over the groom.



 
http://img833.imageshack.us/img833/4735/31625542.png 
http://img833.imageshack.us/img833/531/63206923.png 
http://img833.imageshack.us/img833/6890/57420364.png 
http://img833.imageshack.us/img833/9316/95864224.png